<svg width="12" height="12" viewBox="0 0 12 12" fill="none" xmlns="http://www.w3.org/2000/svg">
<rect x="2.39996" y="3.6001" width="6.59989" height="5.9999" fill="#F3F3F3"/>
<path fill-rule="evenodd" clip-rule="evenodd" d="M4.55498 0.720335C4.46028 0.805326 4.36114 0.885237 4.25798 0.959731C4.07918 1.07973 3.87819 1.16253 3.66699 1.20453C3.57519 1.22253 3.47919 1.23033 3.2878 1.24533C2.8072 1.28373 2.56661 1.30293 2.36621 1.37372C2.13701 1.45451 1.92883 1.58565 1.75699 1.75749C1.58515 1.92933 1.45401 2.13751 1.37323 2.36671C1.30243 2.5671 1.28323 2.8077 1.24483 3.28829C1.23794 3.41532 1.22432 3.5419 1.20403 3.66749C1.16203 3.87868 1.07923 4.07968 0.959234 4.25848C0.907035 4.33648 0.844636 4.40967 0.719838 4.55547C0.407243 4.92267 0.250646 5.10626 0.158847 5.29826C-0.0529491 5.74225 -0.0529491 6.25824 0.158847 6.70224C0.250646 6.89423 0.407243 7.07783 0.719838 7.44502C0.844636 7.59082 0.907035 7.66402 0.959234 7.74202C1.07923 7.92082 1.16203 8.12181 1.20403 8.33301C1.22203 8.42481 1.22983 8.52081 1.24483 8.7122C1.28323 9.1928 1.30243 9.43339 1.37323 9.63379C1.45401 9.86299 1.58515 10.0712 1.75699 10.243C1.92883 10.4148 2.13701 10.546 2.36621 10.6268C2.56661 10.6976 2.8072 10.7168 3.2878 10.7552C3.47919 10.7702 3.57519 10.778 3.66699 10.796C3.87819 10.838 4.07918 10.9214 4.25798 11.0408C4.33598 11.093 4.40918 11.1554 4.55498 11.2802C4.92217 11.5928 5.10577 11.7494 5.29776 11.8412C5.74176 12.0529 6.25775 12.0529 6.70174 11.8412C6.89374 11.7494 7.07733 11.5928 7.44453 11.2802C7.59033 11.1554 7.66352 11.093 7.74152 11.0408C7.92032 10.9208 8.12132 10.838 8.33251 10.796C8.42431 10.778 8.52031 10.7702 8.71171 10.7552C9.1923 10.7168 9.4329 10.6976 9.63329 10.6268C9.86249 10.546 10.0707 10.4148 10.2425 10.243C10.4144 10.0712 10.5455 9.86299 10.6263 9.63379C10.6971 9.43339 10.7163 9.1928 10.7547 8.7122C10.7697 8.52081 10.7775 8.42481 10.7955 8.33301C10.8375 8.12181 10.9209 7.92082 11.0403 7.74202C11.0925 7.66402 11.1549 7.59082 11.2797 7.44502C11.5923 7.07783 11.7489 6.89423 11.8407 6.70224C12.0525 6.25824 12.0525 5.74225 11.8407 5.29826C11.7489 5.10626 11.5923 4.92267 11.2797 4.55547C11.1947 4.46077 11.1148 4.36164 11.0403 4.25848C10.9202 4.07971 10.837 3.8788 10.7955 3.66749C10.7752 3.5419 10.7616 3.41532 10.7547 3.28829C10.7163 2.8077 10.6971 2.5671 10.6263 2.36671C10.5455 2.13751 10.4144 1.92933 10.2425 1.75749C10.0707 1.58565 9.86249 1.45451 9.63329 1.37372C9.4329 1.30293 9.1923 1.28373 8.71171 1.24533C8.58468 1.23844 8.4581 1.22482 8.33251 1.20453C8.1212 1.16302 7.92029 1.0798 7.74152 0.959731C7.63836 0.885237 7.53923 0.805326 7.44453 0.720335C7.07733 0.40774 6.89374 0.251143 6.70174 0.159344C6.48259 0.054449 6.24271 0 5.99975 0C5.75679 0 5.51692 0.054449 5.29776 0.159344C5.10577 0.251143 4.92217 0.40774 4.55498 0.720335ZM8.62351 4.71807C8.70831 4.62526 8.75405 4.50332 8.75122 4.37763C8.74838 4.25194 8.69719 4.13219 8.6083 4.04329C8.5194 3.9544 8.39964 3.90321 8.27396 3.90037C8.14827 3.89754 8.02633 3.94328 7.93352 4.02808L5.02357 6.93803L4.06598 5.98105C3.97317 5.89625 3.85123 5.85051 3.72555 5.85334C3.59986 5.85617 3.48011 5.90737 3.39121 5.99626C3.30231 6.08516 3.25112 6.20491 3.24829 6.3306C3.24545 6.45629 3.29119 6.57822 3.37599 6.67104L4.67797 7.97302C4.76954 8.06439 4.89361 8.11571 5.02297 8.11571C5.15233 8.11571 5.2764 8.06439 5.36796 7.97302L8.62351 4.71807Z" fill="#00B03E"/>
</svg>
