<svg width="13" height="14" viewBox="0 0 13 14" fill="none" xmlns="http://www.w3.org/2000/svg">
<path d="M0.75606 6.94745C0.755779 7.96356 1.02128 8.95572 1.52612 9.83022L0.707779 12.8181L3.76553 12.0164C4.61127 12.4768 5.55885 12.718 6.52178 12.7181H6.52431C9.70314 12.7181 12.2908 10.1314 12.2921 6.952C12.2927 5.41136 11.6933 3.96264 10.6042 2.8727C9.51531 1.78286 8.06711 1.18234 6.52408 1.18164C3.34487 1.18164 0.75742 3.7682 0.756107 6.94745" fill="url(#paint0_linear_324_1523)"/>
<path d="M0.550156 6.94577C0.549828 7.99844 0.824844 9.02608 1.34769 9.93189L0.5 13.0269L3.66739 12.1964C4.54011 12.6723 5.5227 12.9231 6.52255 12.9235H6.52512C9.818 12.9235 12.4986 10.2438 12.5 6.95055C12.5006 5.35455 11.8796 3.85375 10.7516 2.72477C9.62342 1.59593 8.12342 0.973801 6.52512 0.973145C3.23169 0.973145 0.551469 3.65252 0.550156 6.94577ZM2.43645 9.7759L2.31819 9.58816C1.82103 8.79766 1.55862 7.88416 1.559 6.94614C1.56003 4.20888 3.78772 1.98189 6.527 1.98189C7.85356 1.98246 9.10025 2.49958 10.0379 3.43783C10.9756 4.37618 11.4915 5.62352 11.4912 6.95018C11.49 9.68744 9.26225 11.9147 6.52512 11.9147H6.52316C5.63192 11.9142 4.75784 11.6749 3.99556 11.2226L3.81416 11.115L1.93456 11.6078L2.43645 9.7759Z" fill="url(#paint1_linear_324_1523)"/>
<path d="M5.03181 4.44893C4.91996 4.20035 4.80226 4.19533 4.6959 4.19097C4.60881 4.18722 4.50924 4.1875 4.40978 4.1875C4.31021 4.1875 4.14845 4.22496 4.01171 4.37425C3.87484 4.52369 3.48915 4.88482 3.48915 5.6193C3.48915 6.35379 4.02414 7.06366 4.09871 7.16336C4.17339 7.26288 5.13151 8.81838 6.64895 9.41679C7.91007 9.91408 8.16671 9.81518 8.44042 9.79024C8.71417 9.7654 9.32373 9.42921 9.44809 9.0806C9.57254 8.73204 9.57254 8.43325 9.53523 8.37082C9.49792 8.30861 9.39835 8.27125 9.24906 8.19663C9.09976 8.122 8.36574 7.76079 8.22892 7.71096C8.09204 7.66118 7.99253 7.63633 7.89296 7.78582C7.7934 7.93507 7.50751 8.27126 7.42037 8.37082C7.33332 8.47061 7.24618 8.48304 7.09693 8.40836C6.94754 8.33346 6.46674 8.176 5.89632 7.66746C5.45251 7.27174 5.15289 6.78307 5.06579 6.63358C4.9787 6.48433 5.05646 6.40343 5.13132 6.32904C5.1984 6.26215 5.28067 6.15471 5.35539 6.06757C5.42982 5.98038 5.45467 5.91818 5.50445 5.81861C5.55428 5.71896 5.52934 5.63177 5.49207 5.5571C5.45467 5.48243 5.16456 4.7441 5.03181 4.44893Z" fill="white"/>
<defs>
<linearGradient id="paint0_linear_324_1523" x1="579.926" y1="1164.83" x2="579.926" y2="1.18164" gradientUnits="userSpaceOnUse">
<stop stop-color="#1FAF38"/>
<stop offset="1" stop-color="#60D669"/>
</linearGradient>
<linearGradient id="paint1_linear_324_1523" x1="600.5" y1="1206.35" x2="600.5" y2="0.973145" gradientUnits="userSpaceOnUse">
<stop stop-color="#F9F9F9"/>
<stop offset="1" stop-color="white"/>
</linearGradient>
</defs>
</svg>
