<svg width="512" height="512" viewBox="0 0 512 512" fill="none" xmlns="http://www.w3.org/2000/svg">
<circle cx="256" cy="256" r="256" fill="#6764E2"/>
<path d="M89.6 282.049C104.21 267.961 123.131 256.821 148.039 256.482C171.313 256.166 186.772 264.782 203.869 277.353M203.869 277.353C219.812 289.634 231.678 295.877 232.045 321.704C232.278 338.151 220.311 352.567 203.869 353.01C187.011 353.465 173.016 338.531 174.128 321.704C176.029 292.919 194.633 283.032 203.869 277.353ZM203.869 277.353C217.529 267.637 235.76 256.482 258.655 256.482C281.55 256.482 297.186 265.594 313.441 277.353M313.441 277.353C313.441 277.353 342.139 301.876 341.096 321.704C340.052 341.531 328.573 351.967 313.441 353.01C298.31 354.054 282.266 338.313 284.222 321.704C286.723 300.469 300.781 291.432 313.441 277.353ZM313.441 277.353C331.453 265.26 345.001 256.47 367.706 256.482C392.803 256.495 410.643 267.271 426.667 282.049" stroke="white" stroke-width="21" stroke-linecap="square"/>
<path fill-rule="evenodd" clip-rule="evenodd" d="M150.126 240.307C172.891 240.307 191.346 221.852 191.346 199.087C191.346 176.322 172.891 157.867 150.126 157.867C127.361 157.867 108.906 176.322 108.906 199.087C108.906 221.852 127.361 240.307 150.126 240.307ZM150.126 218.393C160.788 218.393 169.432 209.749 169.432 199.087C169.432 188.425 160.788 179.781 150.126 179.781C139.464 179.781 130.82 188.425 130.82 199.087C130.82 209.749 139.464 218.393 150.126 218.393Z" fill="white"/>
<path fill-rule="evenodd" clip-rule="evenodd" d="M258 231C285.614 231 308 208.614 308 181C308 153.386 285.614 131 258 131C230.386 131 208 153.386 208 181C208 208.614 230.386 231 258 231ZM258 204.418C270.933 204.418 281.418 193.933 281.418 181C281.418 168.067 270.933 157.582 258 157.582C245.067 157.582 234.582 168.067 234.582 181C234.582 193.933 245.067 204.418 258 204.418Z" fill="white"/>
<path fill-rule="evenodd" clip-rule="evenodd" d="M366.141 240.307C388.906 240.307 407.361 221.852 407.361 199.087C407.361 176.322 388.906 157.867 366.141 157.867C343.375 157.867 324.921 176.322 324.921 199.087C324.921 221.852 343.375 240.307 366.141 240.307ZM366.141 218.393C376.803 218.393 385.446 209.749 385.446 199.087C385.446 188.425 376.803 179.781 366.141 179.781C355.479 179.781 346.835 188.425 346.835 199.087C346.835 209.749 355.479 218.393 366.141 218.393Z" fill="white"/>
</svg>
