<svg width="512" height="512" viewBox="0 0 512 512" fill="none" xmlns="http://www.w3.org/2000/svg">
<rect width="512" height="512" fill="#F3F3F3"/>
<path d="M87 296.049C101.61 281.961 120.531 270.821 145.439 270.482C168.713 270.166 184.172 278.782 201.269 291.353M201.269 291.353C217.212 303.634 229.078 309.877 229.445 335.704C229.678 352.151 217.711 366.567 201.269 367.01C184.411 367.465 170.416 352.531 171.528 335.704C173.429 306.919 192.033 297.032 201.269 291.353ZM201.269 291.353C214.929 281.637 233.16 270.482 256.055 270.482C278.95 270.482 294.586 279.594 310.841 291.353M310.841 291.353C310.841 291.353 339.539 315.876 338.496 335.704C337.452 355.531 325.973 365.967 310.841 367.01C295.71 368.054 279.666 352.313 281.622 335.704C284.123 314.469 298.181 305.432 310.841 291.353ZM310.841 291.353C328.853 279.26 342.401 270.47 365.106 270.482C390.203 270.495 408.043 281.271 424.067 296.049" stroke="#6764E2" stroke-width="21" stroke-linecap="square"/>
<path fill-rule="evenodd" clip-rule="evenodd" d="M147.526 254.307C170.291 254.307 188.746 235.852 188.746 213.087C188.746 190.322 170.291 171.867 147.526 171.867C124.761 171.867 106.306 190.322 106.306 213.087C106.306 235.852 124.761 254.307 147.526 254.307ZM147.526 232.393C158.188 232.393 166.832 223.749 166.832 213.087C166.832 202.425 158.188 193.781 147.526 193.781C136.864 193.781 128.22 202.425 128.22 213.087C128.22 223.749 136.864 232.393 147.526 232.393Z" fill="#6764E2"/>
<path fill-rule="evenodd" clip-rule="evenodd" d="M255.4 245C283.014 245 305.4 222.614 305.4 195C305.4 167.386 283.014 145 255.4 145C227.786 145 205.4 167.386 205.4 195C205.4 222.614 227.786 245 255.4 245ZM255.4 218.418C268.333 218.418 278.818 207.933 278.818 195C278.818 182.067 268.333 171.582 255.4 171.582C242.467 171.582 231.982 182.067 231.982 195C231.982 207.933 242.467 218.418 255.4 218.418Z" fill="#6764E2"/>
<path fill-rule="evenodd" clip-rule="evenodd" d="M363.541 254.307C386.306 254.307 404.761 235.852 404.761 213.087C404.761 190.322 386.306 171.867 363.541 171.867C340.775 171.867 322.321 190.322 322.321 213.087C322.321 235.852 340.775 254.307 363.541 254.307ZM363.541 232.393C374.203 232.393 382.846 223.749 382.846 213.087C382.846 202.425 374.203 193.781 363.541 193.781C352.879 193.781 344.235 202.425 344.235 213.087C344.235 223.749 352.879 232.393 363.541 232.393Z" fill="#6764E2"/>
</svg>
